<?xml version="1.0" encoding="UTF-8"?>
<svg width="512" height="512" viewBox="0 0 512 512" fill="none" xmlns="http://www.w3.org/2000/svg">
  <rect width="512" height="512" rx="100" fill="#6366F1"/>
  <path d="M156 356V156H256C289.137 156 315.137 164.863 334 182.59C352.863 200.317 362.295 224.59 362.295 255.41C362.295 286.23 352.863 310.503 334 328.23C315.137 345.957 289.137 354.82 256 354.82H156V356ZM220.59 303.41H256C272.183 303.41 284.91 298.457 294.183 288.55C303.457 278.643 308.093 268.737 308.093 255.41C308.093 242.083 303.457 232.177 294.183 222.27C284.91 212.363 272.183 207.41 256 207.41H220.59V303.41Z" fill="white"/>
</svg> 